<svg width="25" height="25" viewBox="0 0 20 20" fill="none" xmlns="http://www.w3.org/2000/svg">
<path d="M19.6318 4.73697L17.6318 3.73697L10.2985 0.0703001C10.1109 -0.0234334 9.88959 -0.0234334 9.70212 0.0703001L2.36878 3.73697L0.368776 4.73697C0.0393085 4.90164 -0.0941584 5.30204 0.0705752 5.63151C0.235309 5.96031 0.635376 6.09504 0.96511 5.92971L2.00025 5.41211V18C2.00025 19.1029 2.89738 20 4.00025 20H16.0003C17.1031 20 18.0003 19.1029 18.0003 18V5.41211L19.0354 5.92971C19.1311 5.97751 19.233 5.99998 19.3329 5.99998C19.5777 5.99998 19.8131 5.86524 19.9299 5.63151C20.0947 5.30204 19.9612 4.90164 19.6318 4.73697ZM16.6669 18C16.6669 18.3675 16.3678 18.6667 16.0003 18.6667H4.00025C3.63271 18.6667 3.33358 18.3675 3.33358 18V4.74544L10.0003 1.4121L16.6669 4.74544V18Z" fill="currentColor"/>
<path d="M9.80496 10.1953C9.56116 9.95185 9.17183 9.93425 8.90683 10.1547L4.90682 13.488C4.62395 13.7237 4.58589 14.1439 4.82155 14.4268C4.95342 14.5849 5.14289 14.6667 5.33395 14.6667C5.48435 14.6667 5.63569 14.6159 5.76035 14.5121L9.29256 11.5687L10.1956 12.4714C10.456 12.7318 10.8778 12.7318 11.1383 12.4714L14.0003 9.60938V10.6667C14.0003 11.0348 14.2988 11.3333 14.667 11.3333C15.0351 11.3333 15.3336 11.0348 15.3336 10.6667V7.99998C15.3336 7.91318 15.3159 7.82671 15.2822 7.74525C15.2146 7.58231 15.0847 7.45238 14.9218 7.38485C14.8402 7.35105 14.7538 7.33331 14.667 7.33331H12.0003C11.6322 7.33331 11.3336 7.63185 11.3336 7.99998C11.3336 8.36811 11.6322 8.66665 12.0003 8.66665H13.0576L10.667 11.0573L9.80496 10.1953Z" fill="currentColor"/>
<path d="M14.667 16H5.33366C4.96553 16 4.66699 16.2985 4.66699 16.6667C4.66699 17.0348 4.96553 17.3333 5.33366 17.3333H14.667C15.0351 17.3333 15.3337 17.0348 15.3337 16.6667C15.3337 16.2985 15.0351 16 14.667 16Z" fill="currentColor"/>
</svg>
