<svg width="26" height="20" viewBox="0 0 26 20" fill="none" xmlns="http://www.w3.org/2000/svg">
<path d="M22.8485 12.7273V15.5C23.7475 15.7106 24.4242 16.6277 24.4242 17.7273C24.4242 18.9825 23.5424 20 22.4545 20C21.3667 20 20.4848 18.9825 20.4848 17.7273C20.4848 16.6277 21.1615 15.7106 22.0606 15.5V12.7273H10.2424V15.5C11.1415 15.7106 11.8182 16.6277 11.8182 17.7273C11.8182 18.9825 10.9363 20 9.84848 20C8.76065 20 7.87879 18.9825 7.87879 17.7273C7.87879 16.6277 8.55548 15.7106 9.45455 15.5V12.7273H2.36364C1.05824 12.7273 0 11.5062 0 10C0 8.49377 1.05824 7.27273 2.36364 7.27273H3.15152V4.49998C2.25245 4.28941 1.57576 3.37225 1.57576 2.27273C1.57576 1.01753 2.45762 0 3.54545 0C4.63329 0 5.51515 1.01753 5.51515 2.27273C5.51515 3.37225 4.83846 4.28941 3.93939 4.49998V7.27273H15.7576V4.49998C14.8585 4.28941 14.1818 3.37225 14.1818 2.27273C14.1818 1.01753 15.0637 0 16.1515 0C17.2393 0 18.1212 1.01753 18.1212 2.27273C18.1212 3.37225 17.4445 4.28941 16.5455 4.49998V7.27273H23.6364C24.9418 7.27273 26 8.49377 26 10C26 11.5062 24.9418 12.7273 23.6364 12.7273H22.8485ZM2.36364 8.18182C1.49337 8.18182 0.787879 8.99585 0.787879 10C0.787879 11.0042 1.49337 11.8182 2.36364 11.8182H6.30303V8.18182H2.36364ZM13.3939 8.18182V11.8182H18.9091V8.18182H13.3939ZM7.09091 11.8182H12.6061V8.18182H7.09091V11.8182ZM19.697 11.8182H23.6364C24.5066 11.8182 25.2121 11.0042 25.2121 10C25.2121 8.99585 24.5066 8.18182 23.6364 8.18182H19.697V11.8182ZM3.54545 3.63636C4.19815 3.63636 4.72727 3.02584 4.72727 2.27273C4.72727 1.51961 4.19815 0.909091 3.54545 0.909091C2.89275 0.909091 2.36364 1.51961 2.36364 2.27273C2.36364 3.02584 2.89275 3.63636 3.54545 3.63636ZM16.1515 3.63636C16.8042 3.63636 17.3333 3.02584 17.3333 2.27273C17.3333 1.51961 16.8042 0.909091 16.1515 0.909091C15.4988 0.909091 14.9697 1.51961 14.9697 2.27273C14.9697 3.02584 15.4988 3.63636 16.1515 3.63636ZM9.84848 16.3636C9.19579 16.3636 8.66667 16.9742 8.66667 17.7273C8.66667 18.4804 9.19579 19.0909 9.84848 19.0909C10.5012 19.0909 11.0303 18.4804 11.0303 17.7273C11.0303 16.9742 10.5012 16.3636 9.84848 16.3636ZM22.4545 16.3636C21.8018 16.3636 21.2727 16.9742 21.2727 17.7273C21.2727 18.4804 21.8018 19.0909 22.4545 19.0909C23.1072 19.0909 23.6364 18.4804 23.6364 17.7273C23.6364 16.9742 23.1072 16.3636 22.4545 16.3636Z" fill="currentColor"/>
</svg>
