<svg width="390" height="303" viewBox="0 0 390 303" fill="none" xmlns="http://www.w3.org/2000/svg">
<circle r="26.8663" transform="matrix(1 0 0 -1 53.8981 4.99385)" fill="#F56B2A" fill-opacity="0.07"/>
<circle r="26.8663" transform="matrix(1 0 0 -1 53.8981 185.382)" fill="#F56B2A" fill-opacity="0.07"/>
<circle r="26.8663" transform="matrix(1 0 0 -1 -26.7006 95.1877)" fill="#F56B2A" fill-opacity="0.07"/>
<circle r="26.8663" transform="matrix(1 0 0 -1 -26.7006 275.575)" fill="#F56B2A" fill-opacity="0.07"/>
<circle r="26.8663" transform="matrix(1 0 0 -1 213.177 4.99385)" fill="#F56B2A" fill-opacity="0.07"/>
<circle r="26.8663" transform="matrix(1 0 0 -1 213.177 185.382)" fill="#F56B2A" fill-opacity="0.07"/>
<circle r="26.8663" transform="matrix(1 0 0 -1 132.578 95.1877)" fill="#F56B2A" fill-opacity="0.07"/>
<circle r="26.8663" transform="matrix(1 0 0 -1 372.455 4.99385)" fill="#F56B2A" fill-opacity="0.07"/>
<path d="M318.723 95.1877C318.723 80.3499 306.694 68.3214 291.856 68.3214C277.019 68.3214 264.99 80.3499 264.99 95.1877C264.99 110.026 277.019 122.054 291.856 122.054C306.694 122.054 318.723 110.026 318.723 95.1877Z" fill="#F56B2A" fill-opacity="0.07"/>
</svg>
