<svg width="390" height="511" viewBox="0 0 390 511" fill="none" xmlns="http://www.w3.org/2000/svg">
<circle r="19.6" transform="matrix(1 0 0 -1 58.2 294)" fill="#F56B2A" fill-opacity="0.05"/>
<circle r="19.6" transform="matrix(1 0 0 -1 58.2 425.6)" fill="#F56B2A" fill-opacity="0.05"/>
<circle r="19.6" transform="matrix(1 0 0 -1 -0.600012 359.8)" fill="#F56B2A" fill-opacity="0.05"/>
<circle r="19.6" transform="matrix(1 0 0 -1 -0.600012 491.4)" fill="#F56B2A" fill-opacity="0.05"/>
<circle r="19.6" transform="matrix(1 0 0 -1 174.4 294)" fill="#F56B2A" fill-opacity="0.05"/>
<circle r="19.6" transform="matrix(1 0 0 -1 174.4 425.6)" fill="#F56B2A" fill-opacity="0.05"/>
<circle r="19.6" transform="matrix(1 0 0 -1 115.6 359.8)" fill="#F56B2A" fill-opacity="0.05"/>
<circle r="19.6" transform="matrix(1 0 0 -1 115.6 491.4)" fill="#F56B2A" fill-opacity="0.05"/>
<circle r="19.6" transform="matrix(1 0 0 -1 290.6 294)" fill="#F56B2A" fill-opacity="0.05"/>
<circle r="19.6" transform="matrix(1 0 0 -1 290.6 425.6)" fill="#F56B2A" fill-opacity="0.05"/>
<circle r="19.6" transform="matrix(1 0 0 -1 231.8 359.8)" fill="#F56B2A" fill-opacity="0.05"/>
<circle r="19.6" transform="matrix(1 0 0 -1 231.8 491.4)" fill="#F56B2A" fill-opacity="0.05"/>
<circle r="19.6" transform="matrix(1 0 0 -1 406.8 294)" fill="#F56B2A" fill-opacity="0.05"/>
<circle r="19.6" transform="matrix(1 0 0 -1 406.8 425.6)" fill="#F56B2A" fill-opacity="0.05"/>
<circle r="19.6" transform="matrix(1 0 0 -1 348 359.8)" fill="#F56B2A" fill-opacity="0.05"/>
<circle r="19.6" transform="matrix(1 0 0 -1 348 491.4)" fill="#F56B2A" fill-opacity="0.05"/>
<circle r="19.6" transform="matrix(1 0 0 -1 48.4 19.6)" fill="#F56B2A" fill-opacity="0.05"/>
<circle r="19.6" transform="matrix(1 0 0 -1 48.4 151.2)" fill="#F56B2A" fill-opacity="0.05"/>
<path d="M9.2 85.4C9.2 74.5752 0.424782 65.8 -10.4 65.8C-21.2248 65.8 -30 74.5752 -30 85.4C-30 96.2248 -21.2248 105 -10.4 105C0.424782 105 9.2 96.2248 9.2 85.4Z" fill="#F56B2A" fill-opacity="0.05"/>
<circle r="19.6" transform="matrix(1 0 0 -1 -10.4 217)" fill="#F56B2A" fill-opacity="0.05"/>
<circle r="19.6" transform="matrix(1 0 0 -1 164.6 19.6)" fill="#F56B2A" fill-opacity="0.05"/>
<circle r="19.6" transform="matrix(1 0 0 -1 164.6 151.2)" fill="#F56B2A" fill-opacity="0.05"/>
<circle r="19.6" transform="matrix(1 0 0 -1 105.8 85.4)" fill="#F56B2A" fill-opacity="0.05"/>
<circle r="19.6" transform="matrix(1 0 0 -1 105.8 217)" fill="#F56B2A" fill-opacity="0.05"/>
<circle r="19.6" transform="matrix(1 0 0 -1 280.8 19.6)" fill="#F56B2A" fill-opacity="0.05"/>
<circle r="19.6" transform="matrix(1 0 0 -1 280.8 151.2)" fill="#F56B2A" fill-opacity="0.05"/>
<circle r="19.6" transform="matrix(1 0 0 -1 222 85.4)" fill="#F56B2A" fill-opacity="0.05"/>
<circle r="19.6" transform="matrix(1 0 0 -1 222 217)" fill="#F56B2A" fill-opacity="0.05"/>
<circle r="19.6" transform="matrix(1 0 0 -1 397 19.6)" fill="#F56B2A" fill-opacity="0.05"/>
<circle r="19.6" transform="matrix(1 0 0 -1 397 151.2)" fill="#F56B2A" fill-opacity="0.05"/>
<circle r="19.6" transform="matrix(1 0 0 -1 338.2 85.4)" fill="#F56B2A" fill-opacity="0.05"/>
<circle r="19.6" transform="matrix(1 0 0 -1 338.2 217)" fill="#F56B2A" fill-opacity="0.05"/>
</svg>
