<svg width="390" height="432" viewBox="0 0 390 432" fill="none" xmlns="http://www.w3.org/2000/svg">
<circle r="19.6" transform="matrix(1 0 0 -1 88.2 294)" fill="#F56B2A" fill-opacity="0.05"/>
<circle r="19.6" transform="matrix(1 0 0 -1 88.2 425.6)" fill="#F56B2A" fill-opacity="0.05"/>
<circle r="19.6" transform="matrix(1 0 0 -1 29.4 359.8)" fill="#F56B2A" fill-opacity="0.05"/>
<circle r="19.6" transform="matrix(1 0 0 -1 204.4 294)" fill="#F56B2A" fill-opacity="0.05"/>
<circle r="19.6" transform="matrix(1 0 0 -1 204.4 425.6)" fill="#F56B2A" fill-opacity="0.05"/>
<circle r="19.6" transform="matrix(1 0 0 -1 145.6 359.8)" fill="#F56B2A" fill-opacity="0.05"/>
<circle r="19.6" transform="matrix(1 0 0 -1 320.6 294)" fill="#F56B2A" fill-opacity="0.05"/>
<circle r="19.6" transform="matrix(1 0 0 -1 320.6 425.6)" fill="#F56B2A" fill-opacity="0.05"/>
<circle r="19.6" transform="matrix(1 0 0 -1 261.8 359.8)" fill="#F56B2A" fill-opacity="0.05"/>
<circle r="19.6" transform="matrix(1 0 0 -1 378 359.8)" fill="#F56B2A" fill-opacity="0.05"/>
<circle r="19.6" transform="matrix(1 0 0 -1 78.4 19.6)" fill="#F56B2A" fill-opacity="0.05"/>
<circle r="19.6" transform="matrix(1 0 0 -1 78.4 151.2)" fill="#F56B2A" fill-opacity="0.05"/>
<path d="M39.2 85.4C39.2 74.5752 30.4248 65.8 19.6 65.8C8.77522 65.8 0 74.5752 0 85.4C0 96.2248 8.77522 105 19.6 105C30.4248 105 39.2 96.2248 39.2 85.4Z" fill="#F56B2A" fill-opacity="0.05"/>
<circle r="19.6" transform="matrix(1 0 0 -1 19.6 217)" fill="#F56B2A" fill-opacity="0.05"/>
<circle r="19.6" transform="matrix(1 0 0 -1 194.6 19.6)" fill="#F56B2A" fill-opacity="0.05"/>
<circle r="19.6" transform="matrix(1 0 0 -1 194.6 151.2)" fill="#F56B2A" fill-opacity="0.05"/>
<circle r="19.6" transform="matrix(1 0 0 -1 135.8 85.4)" fill="#F56B2A" fill-opacity="0.05"/>
<circle r="19.6" transform="matrix(1 0 0 -1 135.8 217)" fill="#F56B2A" fill-opacity="0.05"/>
<circle r="19.6" transform="matrix(1 0 0 -1 310.8 19.6)" fill="#F56B2A" fill-opacity="0.05"/>
<circle r="19.6" transform="matrix(1 0 0 -1 310.8 151.2)" fill="#F56B2A" fill-opacity="0.05"/>
<circle r="19.6" transform="matrix(1 0 0 -1 252 85.4)" fill="#F56B2A" fill-opacity="0.05"/>
<circle r="19.6" transform="matrix(1 0 0 -1 252 217)" fill="#F56B2A" fill-opacity="0.05"/>
<circle r="19.6" transform="matrix(1 0 0 -1 368.2 85.4)" fill="#F56B2A" fill-opacity="0.05"/>
<circle r="19.6" transform="matrix(1 0 0 -1 368.2 217)" fill="#F56B2A" fill-opacity="0.05"/>
</svg>
