<svg width="174" height="134" viewBox="0 0 174 134" fill="none" xmlns="http://www.w3.org/2000/svg">
<g style="mix-blend-mode:overlay" opacity="0.1">
<ellipse rx="7.47191" ry="6.91714" transform="matrix(-1 -8.09318e-08 -9.44343e-08 1 140.374 30.1391)" fill="white"/>
<ellipse rx="7.47191" ry="6.91714" transform="matrix(-1 -8.09318e-08 -9.44343e-08 1 162.79 6.91714)" fill="white"/>
<ellipse rx="7.47191" ry="6.91714" transform="matrix(-1 -8.09318e-08 -9.44343e-08 1 96.0766 30.1391)" fill="white"/>
<ellipse rx="7.47191" ry="6.91714" transform="matrix(-1 -8.09318e-08 -9.44343e-08 1 118.492 6.91714)" fill="white"/>
<ellipse rx="7.47191" ry="6.91714" transform="matrix(-1 -8.09318e-08 -9.44343e-08 1 51.7788 30.1391)" fill="white"/>
<path d="M66.7226 6.91714C66.7226 10.7374 70.0679 13.8343 74.1945 13.8343C78.3212 13.8343 81.6664 10.7374 81.6664 6.91714C81.6665 3.09691 78.3212 -2.7074e-07 74.1945 -6.04715e-07C70.0679 -9.38691e-07 66.7226 3.09691 66.7226 6.91714Z" fill="white"/>
<ellipse rx="7.47191" ry="6.91714" transform="matrix(-1 -8.09318e-08 -9.44343e-08 1 7.48102 30.1391)" fill="white"/>
<ellipse rx="7.47191" ry="6.91714" transform="matrix(-1 -8.09318e-08 -9.44343e-08 1 29.8968 6.91714)" fill="white"/>
<ellipse rx="7.47191" ry="6.91714" transform="matrix(-1 -8.09318e-08 -9.44343e-08 1 144.11 126.979)" fill="white"/>
<ellipse rx="7.47191" ry="6.91714" transform="matrix(-1 -8.09318e-08 -9.44343e-08 1 144.11 80.5358)" fill="white"/>
<path d="M159.054 103.757C159.054 107.578 162.399 110.675 166.526 110.675C170.653 110.675 173.998 107.578 173.998 103.757C173.998 99.9372 170.653 96.8403 166.526 96.8403C162.399 96.8403 159.054 99.9372 159.054 103.757Z" fill="white"/>
<ellipse rx="7.47191" ry="6.91714" transform="matrix(-1 -8.09318e-08 -9.44343e-08 1 166.526 57.3136)" fill="white"/>
<ellipse rx="7.47191" ry="6.91714" transform="matrix(-1 -8.09318e-08 -9.44343e-08 1 99.8125 126.979)" fill="white"/>
<ellipse rx="7.47191" ry="6.91714" transform="matrix(-1 -8.09318e-08 -9.44343e-08 1 99.8125 80.5358)" fill="white"/>
<ellipse rx="7.47191" ry="6.91714" transform="matrix(-1 -8.09318e-08 -9.44343e-08 1 122.228 103.757)" fill="white"/>
<ellipse rx="7.47191" ry="6.91714" transform="matrix(-1 -8.09318e-08 -9.44343e-08 1 122.228 57.3136)" fill="white"/>
<ellipse rx="7.47191" ry="6.91714" transform="matrix(-1 -8.09318e-08 -9.44343e-08 1 55.5147 126.979)" fill="white"/>
<ellipse rx="7.47191" ry="6.91714" transform="matrix(-1 -8.09318e-08 -9.44343e-08 1 55.5147 80.5358)" fill="white"/>
<ellipse rx="7.47191" ry="6.91714" transform="matrix(-1 -8.09318e-08 -9.44343e-08 1 77.9305 103.757)" fill="white"/>
<ellipse rx="7.47191" ry="6.91714" transform="matrix(-1 -8.09318e-08 -9.44343e-08 1 77.9305 57.3136)" fill="white"/>
<ellipse rx="7.47191" ry="6.91714" transform="matrix(-1 -8.09318e-08 -9.44343e-08 1 11.217 126.979)" fill="white"/>
<ellipse rx="7.47191" ry="6.91714" transform="matrix(-1 -8.09318e-08 -9.44343e-08 1 11.217 80.5358)" fill="white"/>
<ellipse rx="7.47191" ry="6.91714" transform="matrix(-1 -8.09318e-08 -9.44343e-08 1 33.6327 103.757)" fill="white"/>
<ellipse rx="7.47191" ry="6.91714" transform="matrix(-1 -8.09318e-08 -9.44343e-08 1 33.6327 57.3136)" fill="white"/>
</g>
</svg>
