<svg width="18" height="20" viewBox="0 0 18 20" fill="none" xmlns="http://www.w3.org/2000/svg">
<path d="M11.9251 8.88649C12.2465 8.62638 12.4794 8.27305 12.5917 7.87513C12.704 7.47721 12.6902 7.05427 12.5522 6.6645C12.4143 6.27473 12.1589 5.9373 11.8213 5.69865C11.4836 5.45999 11.0803 5.33185 10.6669 5.33185C10.2534 5.33185 9.8501 5.45999 9.51247 5.69865C9.17483 5.9373 8.91946 6.27473 8.7815 6.6645C8.64353 7.05427 8.62976 7.47721 8.74208 7.87513C8.85439 8.27305 9.08727 8.62638 9.40866 8.88649C7.8175 9.45908 6.66675 11.0866 6.66675 13C6.66674 13.05 6.67796 13.0993 6.6996 13.1444C6.72124 13.1894 6.75273 13.229 6.79175 13.2603C6.86366 13.3177 8.57387 14.6667 10.6667 14.6667C12.7596 14.6667 14.4698 13.3177 14.5417 13.2603C14.5808 13.229 14.6123 13.1894 14.6339 13.1444C14.6555 13.0993 14.6668 13.05 14.6667 13C14.6667 11.0866 13.516 9.45908 11.9251 8.88649ZM9.33341 7.33333C9.33341 7.06962 9.41161 6.81183 9.55812 6.59256C9.70463 6.3733 9.91287 6.2024 10.1565 6.10148C10.4001 6.00057 10.6682 5.97416 10.9269 6.02561C11.1855 6.07706 11.4231 6.20405 11.6096 6.39052C11.796 6.57699 11.923 6.81456 11.9745 7.0732C12.0259 7.33185 11.9995 7.59994 11.8986 7.84357C11.7977 8.0872 11.6268 8.29544 11.4075 8.44195C11.1882 8.58846 10.9305 8.66666 10.6667 8.66666C10.3132 8.66626 9.97434 8.52566 9.72438 8.2757C9.47442 8.02573 9.33381 7.68683 9.33341 7.33333ZM10.6667 14C9.11637 14 7.75166 13.1276 7.33679 12.8342C7.41583 10.8891 8.87925 9.33333 10.6667 9.33333C12.4542 9.33333 13.9177 10.8891 13.9967 12.8342C13.5818 13.1276 12.2171 14 10.6667 14Z" fill="currentColor"/>
<path d="M3 20H16.3333C16.7752 19.9995 17.1988 19.8237 17.5113 19.5113C17.8237 19.1988 17.9995 18.7752 18 18.3333V1.66667C17.9995 1.22479 17.8237 0.801157 17.5113 0.488703C17.1988 0.17625 16.7752 0.000496273 16.3333 0H3C2.55813 0.000496273 2.13449 0.17625 1.82204 0.488703C1.50958 0.801157 1.33383 1.22479 1.33333 1.66667V3H0.333333C0.244928 3 0.160143 3.03512 0.0976311 3.09763C0.035119 3.16014 0 3.24493 0 3.33333C0 3.42174 0.035119 3.50652 0.0976311 3.56904C0.160143 3.63155 0.244928 3.66667 0.333333 3.66667H1.33333V6.33333H0.333333C0.244928 6.33333 0.160143 6.36845 0.0976311 6.43096C0.035119 6.49348 0 6.57826 0 6.66667C0 6.75507 0.035119 6.83986 0.0976311 6.90237C0.160143 6.96488 0.244928 7 0.333333 7H1.33333V9.66667H0.333333C0.244928 9.66667 0.160143 9.70179 0.0976311 9.7643C0.035119 9.82681 0 9.91159 0 10C0 10.0884 0.035119 10.1732 0.0976311 10.2357C0.160143 10.2982 0.244928 10.3333 0.333333 10.3333H1.33333V13H0.333333C0.244928 13 0.160143 13.0351 0.0976311 13.0976C0.035119 13.1601 0 13.2449 0 13.3333C0 13.4217 0.035119 13.5065 0.0976311 13.569C0.160143 13.6315 0.244928 13.6667 0.333333 13.6667H1.33333V16.3333H0.333333C0.244928 16.3333 0.160143 16.3685 0.0976311 16.431C0.035119 16.4935 0 16.5783 0 16.6667C0 16.7551 0.035119 16.8399 0.0976311 16.9024C0.160143 16.9649 0.244928 17 0.333333 17H1.33333V18.3333C1.33383 18.7752 1.50958 19.1988 1.82204 19.5113C2.13449 19.8237 2.55813 19.9995 3 20ZM4.66667 0.666667H16.3333C16.5985 0.666975 16.8526 0.772431 17.0401 0.959901C17.2276 1.14737 17.333 1.40155 17.3333 1.66667V18.3333C17.333 18.5985 17.2276 18.8526 17.0401 19.0401C16.8526 19.2276 16.5985 19.333 16.3333 19.3333H4.66667V0.666667ZM2 17H3C3.08841 17 3.17319 16.9649 3.2357 16.9024C3.29821 16.8399 3.33333 16.7551 3.33333 16.6667C3.33333 16.5783 3.29821 16.4935 3.2357 16.431C3.17319 16.3685 3.08841 16.3333 3 16.3333H2V13.6667H3C3.08841 13.6667 3.17319 13.6315 3.2357 13.569C3.29821 13.5065 3.33333 13.4217 3.33333 13.3333C3.33333 13.2449 3.29821 13.1601 3.2357 13.0976C3.17319 13.0351 3.08841 13 3 13H2V10.3333H3C3.08841 10.3333 3.17319 10.2982 3.2357 10.2357C3.29821 10.1732 3.33333 10.0884 3.33333 10C3.33333 9.91159 3.29821 9.82681 3.2357 9.7643C3.17319 9.70179 3.08841 9.66667 3 9.66667H2V7H3C3.08841 7 3.17319 6.96488 3.2357 6.90237C3.29821 6.83986 3.33333 6.75507 3.33333 6.66667C3.33333 6.57826 3.29821 6.49348 3.2357 6.43096C3.17319 6.36845 3.08841 6.33333 3 6.33333H2V3.66667H3C3.08841 3.66667 3.17319 3.63155 3.2357 3.56904C3.29821 3.50652 3.33333 3.42174 3.33333 3.33333C3.33333 3.24493 3.29821 3.16014 3.2357 3.09763C3.17319 3.03512 3.08841 3 3 3H2V1.66667C2.00031 1.40155 2.10576 1.14737 2.29323 0.959901C2.4807 0.772431 2.73488 0.666975 3 0.666667H4V19.3333H3C2.73488 19.333 2.4807 19.2276 2.29323 19.0401C2.10576 18.8526 2.00031 18.5985 2 18.3333V17Z" fill="currentColor"/>
</svg>
