<svg width="12" height="10" viewBox="0 0 12 10" fill="none" xmlns="http://www.w3.org/2000/svg">
<path d="M10.3351 1.60455H8.4742V1.58385C8.4742 0.817804 7.8607 0.196686 7.10406 0.196686H4.85457C4.09792 0.196686 3.48443 0.817804 3.48443 1.58385V1.60455H1.64394C1.15314 1.60455 0.744141 2.01863 0.744141 2.51553V8.74741C0.744141 9.24431 1.15314 9.65839 1.64394 9.65839H10.3351C10.8259 9.65839 11.2349 9.24431 11.2349 8.74741V2.51553C11.2349 2.01863 10.8259 1.60455 10.3351 1.60455ZM4.13882 1.58385C4.13882 1.19047 4.46602 0.859212 4.85457 0.859212H7.10406C7.4926 0.859212 7.8198 1.19047 7.8198 1.58385V1.60455L4.13882 1.58385ZM7.00181 6.55279V5.5383H9.06724L10.5805 4.5031V8.72671C10.5805 8.85093 10.4783 8.97515 10.3351 8.97515H1.64394C1.52124 8.97515 1.39854 8.87164 1.39854 8.72671V4.5031L2.68688 5.47619L4.85457 5.49689V6.53209H7.00181V6.55279ZM2.91183 4.81366L1.39854 3.67495V2.51553C1.39854 2.3913 1.50079 2.26708 1.64394 2.26708H10.3351C10.4578 2.26708 10.5805 2.3706 10.5805 2.51553V3.73706L8.86275 4.87578L2.91183 4.81366ZM6.34741 5.5383V5.86957H5.50896V5.5383H6.34741Z" fill="currentColor"/>
</svg>
