<svg id="noun-loan-2101691" xmlns="http://www.w3.org/2000/svg" width="17.477" height="23.527" viewBox="0 0 17.477 23.527">
  <path id="Path_1" data-name="Path 1" d="M215.135,77.847H211.1V76.5a.672.672,0,0,0-.672-.672h-6.722a.672.672,0,0,0-.672.672v1.344H199a.672.672,0,0,0-.672.672V98.685a.672.672,0,0,0,.672.672h16.133a.672.672,0,0,0,.672-.672V78.519a.672.672,0,0,0-.672-.672Zm-10.755-.672h5.378v2.689H204.38Zm10.083,20.838H199.675V79.191h3.361v1.344a.672.672,0,0,0,.672.672h6.722a.672.672,0,0,0,.672-.672V79.191h3.361Z" transform="translate(-198.33 -75.83)" fill="#fff"/>
  <path id="Path_2" data-name="Path 2" d="M266.749,390.83h-9.411a.672.672,0,0,0,0,1.345h9.411a.672.672,0,0,0,0-1.345Z" transform="translate(-253.305 -372.681)" fill="#fff"/>
  <path id="Path_3" data-name="Path 3" d="M266.749,320.83h-9.411a.672.672,0,0,0,0,1.345h9.411a.672.672,0,0,0,0-1.345Z" transform="translate(-253.305 -306.714)" fill="#fff"/>
  <path id="Path_4" data-name="Path 4" d="M256.67,251.5a.672.672,0,0,0,.672.672h9.411a.672.672,0,0,0,0-1.345h-9.411a.672.672,0,0,0-.672.672Z" transform="translate(-253.309 -240.749)" fill="#fff"/>
</svg>
