<svg width="16" height="20" viewBox="0 0 16 20" fill="none" xmlns="http://www.w3.org/2000/svg">
<path d="M16 20H0V17.1624C0.195918 16.4444 0.751021 15.7949 1.37143 15.5214L5.48571 13.5043L5.71429 13.4359C6.17143 13.3333 6.46531 12.8547 6.4 12.3761L6.20408 11.1453L6.85714 11.0427L7.02041 12.2735C7.11837 13.094 6.62857 13.8803 5.8449 14.0855L5.64898 14.1196L1.63265 16.1367C1.20816 16.3419 0.816326 16.8205 0.653061 17.3333V19.3162H15.3469V17.3333C15.1184 16.7179 14.7265 16.0342 14.302 15.8632L9.99184 14.188C9.27347 13.9487 8.84898 13.1966 8.94694 12.4102L9.14286 11.0769L9.79592 11.1795L9.6 12.4786C9.53469 12.9231 9.79592 13.3675 10.2204 13.5043L14.5306 15.2137C15.3796 15.5555 15.8694 16.8889 15.9673 17.1624L16 17.2308V20Z" fill="currentColor"/>
<path d="M11.8531 8.34187L11.6245 7.6923C11.8857 7.58973 12.3102 7.35042 12.4408 7.14529C12.5061 7.00854 12.5715 6.73503 12.4735 6.5299C12.3755 6.2564 12.0817 6.05127 11.6572 5.94871L11.8204 5.29913C12.6041 5.50426 12.9306 5.94871 13.0612 6.29059C13.2572 6.76922 13.1592 7.24785 12.9959 7.52136C12.7674 7.99999 12.0163 8.30768 11.8531 8.34187Z" fill="currentColor"/>
<path d="M4.14694 8.34187C4.01632 8.27349 3.2653 7.99999 3.00408 7.52136C2.84081 7.24785 2.74285 6.76922 2.93877 6.29059C3.06938 5.94871 3.39592 5.53845 4.17959 5.29913L4.34285 5.94871C3.91836 6.05127 3.65714 6.2564 3.52653 6.5299C3.42857 6.76922 3.46122 7.00854 3.55918 7.14529C3.65714 7.35042 4.08163 7.58973 4.37551 7.6923L4.14694 8.34187Z" fill="currentColor"/>
<path d="M8.00009 12.1368C7.21642 12.1368 4.17968 10.0171 3.91846 7.35043V5.98291C3.91846 4.82051 4.44091 3.55556 4.76744 2.80342C4.83274 2.66667 4.8654 2.52992 4.89805 2.46154C5.12662 1.91453 5.4858 1.7094 5.94295 1.47009C6.07356 1.40171 6.20417 1.33333 6.36744 1.23077C6.59601 1.09402 6.85723 0.991453 7.08581 0.888889C7.41234 0.752137 7.80417 0.581197 7.83683 0.410256C7.90213 0.136752 8.09805 0 8.35927 0C8.81642 0.034188 9.40417 0.649573 9.46948 1.12821C9.50213 1.36752 9.53479 1.40171 9.76336 1.67521C9.82866 1.74359 9.92662 1.84615 10.0246 1.98291C10.2858 2.32479 10.9389 3.07692 11.2654 3.28205C11.6572 3.55556 11.9511 4.54701 12.0491 4.82051V4.92308V6.97436C12.0817 9.84616 8.78376 12.1368 8.00009 12.1368ZM4.57152 7.00855C4.57152 9.4359 7.5756 11.4188 8.00009 11.453C8.42458 11.4188 11.4287 9.4359 11.4287 7.00855V4.99145C11.2654 4.47863 11.0368 3.93162 10.9062 3.86325C10.547 3.62393 10.0572 3.04274 9.53479 2.42735C9.43683 2.32479 9.33887 2.22222 9.27356 2.15385C9.01234 1.88034 8.84907 1.67521 8.78377 1.23077C8.75111 1.09402 8.55519 0.854701 8.39193 0.752137C8.22866 1.12821 7.77152 1.33333 7.31438 1.53846C7.08581 1.64103 6.88989 1.74359 6.66132 1.84615C6.49805 1.94872 6.33478 2.01709 6.20417 2.08547C5.74703 2.32479 5.61642 2.39316 5.4858 2.70086C5.45315 2.80342 5.38785 2.94017 5.32254 3.07692C5.06131 3.79487 4.57152 4.95727 4.57152 5.98291V7.00855Z" fill="currentColor"/>
</svg>
