<svg xmlns="http://www.w3.org/2000/svg" width="25.632" height="17.745" viewBox="0 0 25.632 17.745">
  <g id="noun-refund-2464452" transform="translate(-122.5 -122.5)">
    <path id="Path_256" data-name="Path 256" d="M334.472,298.486a.986.986,0,1,1-.986-.986.986.986,0,0,1,.986.986" transform="translate(-198.17 -165.142)" fill="#fff"/>
    <path id="Path_257" data-name="Path 257" d="M239.33,218.873a1.971,1.971,0,0,0-1.972,1.972h-5.915a1.971,1.971,0,0,0-1.972-1.972V210H227.5v12.816h13.8V210H239.33Z" transform="translate(-99.085 -82.571)" fill="#fff"/>
    <path id="Path_258" data-name="Path 258" d="M303.415,210H297.5a2.958,2.958,0,0,0,5.915,0Z" transform="translate(-165.142 -82.571)" fill="#fff"/>
    <path id="Path_259" data-name="Path 259" d="M146.16,122.5H124.472a1.971,1.971,0,0,0-1.972,1.972v5.915a1.971,1.971,0,0,0,1.972,1.972h1.972v-3.943h-.493a1.615,1.615,0,0,1-.493-.089,1.539,1.539,0,0,1-.394-.217,1.443,1.443,0,0,1-.3-.306,1.592,1.592,0,0,1-.207-.375v-.079a1.4,1.4,0,0,1-.089-.414,1.479,1.479,0,0,1,1.479-1.479h18.731a1.479,1.479,0,0,1,1.479,1.479,1.4,1.4,0,0,1-.069.414v.079a1.593,1.593,0,0,1-.187.365,1.447,1.447,0,0,1-.3.305,1.535,1.535,0,0,1-.394.217,1.614,1.614,0,0,1-.493.089h-.532v3.943h1.972a1.971,1.971,0,0,0,1.972-1.972v-5.9a1.971,1.971,0,0,0-1.972-1.972Z" fill="#fff"/>
  </g>
</svg>
