<svg id="noun-loan-2101691" xmlns="http://www.w3.org/2000/svg" width="24.866" height="33.473" viewBox="0 0 24.866 33.473">
  <path id="Path_1" data-name="Path 1" d="M222.24,78.7H216.5V76.786a.957.957,0,0,0-.956-.956h-9.564a.957.957,0,0,0-.956.956V78.7h-5.738a.957.957,0,0,0-.956.956v28.691a.957.957,0,0,0,.956.956h22.953a.957.957,0,0,0,.956-.956V79.656a.957.957,0,0,0-.956-.956Zm-15.3-.956h7.651v3.826h-7.651Zm14.346,29.648h-21.04V80.612h4.782v1.913a.957.957,0,0,0,.956.956h9.564a.957.957,0,0,0,.956-.956V80.612h4.782Z" transform="translate(-198.33 -75.83)" fill="currentColor"/>
  <path id="Path_2" data-name="Path 2" d="M271.012,390.83h-13.39a.956.956,0,0,0,0,1.913h13.39a.956.956,0,0,0,0-1.913Z" transform="translate(-251.884 -365.008)" fill="currentColor"/>
  <path id="Path_3" data-name="Path 3" d="M271.012,320.83h-13.39a.956.956,0,0,0,0,1.913h13.39a.956.956,0,0,0,0-1.913Z" transform="translate(-251.884 -300.746)" fill="currentColor"/>
  <path id="Path_4" data-name="Path 4" d="M256.67,251.788a.956.956,0,0,0,.956.956h13.39a.956.956,0,0,0,0-1.913h-13.39a.956.956,0,0,0-.956.956Z" transform="translate(-251.888 -236.486)" fill="currentColor"/>
</svg>
