<svg xmlns="http://www.w3.org/2000/svg" width="26.379" height="22.001" viewBox="0 0 26.379 22.001">
  <g id="noun-top-up-2464489" transform="translate(0 0)">
    <path id="Path_224" data-name="Path 224" d="M181.583,132.944v-3.875a2.189,2.189,0,0,0-2.189-2.189h-18.61a1.095,1.095,0,1,1,0-2.189H178.3a1.095,1.095,0,1,0,0-2.189h-18.61a2.189,2.189,0,0,0-2.189,2.189v15.326a2.189,2.189,0,0,0,2.189,2.189h12.633a6.568,6.568,0,1,0,9.261-9.261ZM177.2,142.8a2.048,2.048,0,1,0,0-.044Z" transform="translate(-157.5 -122.501)" fill="#fff"/>
    <path id="Path_225" data-name="Path 225" d="M422.189,321.568h2.189v-3.284h2.189L423.284,315,420,318.284h2.189Z" transform="translate(-403.579 -302.958)" fill="#fff"/>
  </g>
</svg>
