<svg width="30" height="30" viewBox="0 0 22 20" fill="none" xmlns="http://www.w3.org/2000/svg">
<path d="M17.3333 0H4C2.93905 0 1.92178 0.421316 1.17167 1.17167C0.421368 1.92179 0 2.93923 0 4V16C0 17.0607 0.421315 18.0782 1.17167 18.8283C1.92178 19.5786 2.93899 20 4 20H17.3333C18.3943 20 19.4115 19.5787 20.1617 18.8283C20.912 18.0782 21.3333 17.0608 21.3333 16V4C21.3333 2.93929 20.912 1.92179 20.1617 1.17167C19.4115 0.421369 18.3943 0 17.3333 0ZM18.6665 16C18.6665 16.3537 18.5261 16.6927 18.2762 16.9429C18.026 17.1928 17.687 17.3333 17.3333 17.3333H3.99996C3.64631 17.3333 3.30728 17.1928 3.05711 16.9429C2.80715 16.6927 2.66671 16.3537 2.66671 16V8.21012L7.4735 11.6435H7.47327C8.40493 12.3092 9.52148 12.667 10.6666 12.667C11.8117 12.667 12.9283 12.3091 13.8599 11.6435L18.6665 8.21012L18.6665 16ZM18.6665 4.93333L12.31 9.47339C11.828 9.80984 11.2544 9.99051 10.6666 9.99051C10.0788 9.99051 9.50518 9.80984 9.02321 9.47339L2.66667 4.93333V4C2.66667 3.64635 2.80711 3.30732 3.05706 3.05714C3.30724 2.80719 3.64625 2.66675 3.99992 2.66675H17.3333C17.6869 2.66675 18.0259 2.80719 18.2761 3.05714C18.5261 3.30733 18.6665 3.64633 18.6665 4L18.6665 4.93333Z" fill="#F56C2A"/>
</svg>
