<svg width="11" height="14" viewBox="0 0 11 14" fill="none" xmlns="http://www.w3.org/2000/svg">
<path d="M7.59672 12.3924C9.15242 11.5214 10.1107 9.91176 10.1107 8.16992C10.1088 7.01867 9.68721 5.90528 8.92028 5.02646C8.15354 4.14769 7.09107 3.55999 5.9207 3.36736V1.29217C5.9207 1.09339 5.84551 0.901663 5.70952 0.75311C5.57372 0.604376 5.3863 0.509331 5.18278 0.485569C4.97945 0.461809 4.77406 0.511145 4.60572 0.624329L0.41576 3.43904C0.189612 3.59069 0.0547485 3.84027 0.0547485 4.1069C0.0547485 4.37336 0.189612 4.62295 0.41576 4.77459L4.60572 7.5893C4.73086 7.67491 4.87807 7.72497 5.03089 7.73422C5.18389 7.74347 5.33634 7.71119 5.47139 7.64135C5.60701 7.57261 5.72055 7.46922 5.79986 7.34243C5.87898 7.21546 5.92088 7.06999 5.92069 6.92162V5.03485C6.73488 5.23875 7.44028 5.73193 7.89706 6.41665C8.35385 7.10118 8.52856 7.92739 8.3864 8.73112C8.24446 9.53485 7.79607 10.2573 7.13037 10.7556C6.46466 11.2536 5.63003 11.4909 4.79242 11.4203C3.95462 11.3496 3.17481 10.9763 2.60765 10.3741C2.04073 9.77209 1.7276 8.9854 1.73078 8.16992C1.73078 7.87953 1.57103 7.61126 1.31178 7.46616C1.05253 7.32105 0.733048 7.32105 0.473792 7.46616C0.214537 7.61126 0.0547967 7.87952 0.0547967 8.16992C0.0547967 9.91176 1.01308 11.5214 2.56877 12.3924C4.12447 13.2632 6.04102 13.2632 7.59672 12.3924Z" fill="#F56B2A"/>
</svg>
