<svg width="15" height="18" viewBox="0 0 15 18" fill="none" xmlns="http://www.w3.org/2000/svg">
<path d="M11.0355 17.0814C13.2235 15.8564 14.5713 13.5926 14.5713 11.1428C14.5686 9.5237 13.9757 7.9578 12.897 6.7218C11.8187 5.48587 10.3244 4.65931 8.67834 4.38839V1.46977C8.67834 1.1902 8.57258 0.920559 8.38132 0.711629C8.19033 0.502446 7.92673 0.368771 7.6405 0.335352C7.35453 0.301935 7.06567 0.371323 6.8289 0.530508L0.936021 4.4892C0.61796 4.70249 0.428284 5.0535 0.428284 5.42851C0.428284 5.80326 0.61796 6.15429 0.936021 6.36755L6.8289 10.3262C7.0049 10.4467 7.21194 10.5171 7.42687 10.5301C7.64207 10.5431 7.85647 10.4977 8.04641 10.3995C8.23715 10.3028 8.39683 10.1574 8.50837 9.97905C8.61965 9.80048 8.67858 9.59588 8.67832 9.38721V6.7336C9.82342 7.02036 10.8155 7.71399 11.4579 8.677C12.1004 9.63975 12.3461 10.8017 12.1462 11.9321C11.9465 13.0625 11.3159 14.0786 10.3796 14.7794C9.44338 15.4799 8.26952 15.8135 7.09148 15.7143C5.91318 15.6148 4.81643 15.0898 4.01877 14.2429C3.22142 13.3962 2.78103 12.2898 2.7855 11.1428C2.7855 10.7344 2.56083 10.3571 2.19622 10.1531C1.8316 9.94897 1.38226 9.94897 1.01764 10.1531C0.653015 10.3571 0.428351 10.7344 0.428351 11.1428C0.428351 13.5926 1.7761 15.8564 3.96408 17.0814C6.15206 18.3062 8.84756 18.3062 11.0355 17.0814Z" fill="white"/>
</svg>
