<svg width="17" height="14" viewBox="0 0 17 14" fill="none" xmlns="http://www.w3.org/2000/svg">
<path d="M9.07559 0.219927L16.6976 6.14093C17.4596 6.78593 16.5216 8.01693 15.7596 7.37193L13.7666 5.84793V11.5939C13.7733 12.13 13.5673 12.6469 13.1938 13.0315C12.8203 13.416 12.3096 13.637 11.7736 13.6459H5.20659C4.67055 13.637 4.15989 13.416 3.78637 13.0315C3.41285 12.6469 3.2069 12.13 3.21359 11.5939V5.84793L1.22059 7.37293C0.458587 8.01793 -0.479413 6.78693 0.282587 6.14193L7.90359 0.219927C8.06607 0.0781298 8.27443 0 8.49009 0C8.70575 0 8.9141 0.0781298 9.07659 0.219927H9.07559ZM12.2416 4.61993L8.48959 1.74393L4.73759 4.61693V11.5939C4.73664 11.6558 4.74813 11.7172 4.77136 11.7745C4.7946 11.8318 4.82911 11.8839 4.87285 11.9277C4.91659 11.9714 4.96867 12.0059 5.026 12.0292C5.08333 12.0524 5.14474 12.0639 5.20659 12.0629H11.7726C11.8344 12.0639 11.8958 12.0524 11.9532 12.0292C12.0105 12.0059 12.0626 11.9714 12.1063 11.9277C12.1501 11.8839 12.1846 11.8318 12.2078 11.7745C12.231 11.7172 12.2425 11.6558 12.2416 11.5939V4.61693V4.61993Z" fill="#F2AD8C"/>
<path d="M8.48948 4.20708C8.82885 4.20508 9.16523 4.27046 9.47915 4.39941C9.79307 4.52836 10.0783 4.71832 10.3182 4.9583C10.5582 5.19827 10.7482 5.48347 10.8771 5.79739C11.0061 6.11131 11.0715 6.44771 11.0695 6.78708C11.0934 7.36162 10.9055 7.92495 10.5415 8.37007L8.48948 11.1841L6.49647 8.37007C6.11445 7.93162 5.90602 7.36858 5.91047 6.78708C5.9157 6.10444 6.18921 5.45123 6.67193 4.96852C7.15464 4.4858 7.80783 4.21231 8.49047 4.20708H8.48948ZM8.48948 5.32107C8.68256 5.31907 8.87408 5.35561 9.05285 5.42857C9.23162 5.50153 9.39404 5.60945 9.53057 5.74599C9.6671 5.88252 9.77501 6.04492 9.84797 6.22369C9.92093 6.40246 9.95749 6.594 9.95548 6.78708C9.96445 6.98511 9.93317 7.1829 9.86356 7.36851C9.79396 7.55412 9.68745 7.7237 9.55048 7.867C9.41352 8.01031 9.24893 8.12437 9.06666 8.2023C8.88438 8.28023 8.68822 8.3204 8.48998 8.3204C8.29175 8.3204 8.09557 8.28023 7.91329 8.2023C7.73102 8.12437 7.56643 8.01031 7.42947 7.867C7.2925 7.7237 7.18599 7.55412 7.11639 7.36851C7.04678 7.1829 7.01551 6.98511 7.02447 6.78708C7.02246 6.594 7.05902 6.40246 7.13198 6.22369C7.20494 6.04492 7.31285 5.88252 7.44938 5.74599C7.58591 5.60945 7.74833 5.50153 7.9271 5.42857C8.10587 5.35561 8.2974 5.31907 8.49047 5.32107H8.48948Z" fill="#F2AD8C"/>
</svg>
