<svg width="18" height="14" viewBox="0 0 18 14" fill="none" xmlns="http://www.w3.org/2000/svg">
<path d="M1.83185 0C1.19163 0.000292864 0.60002 0.333885 0.279989 0.875443C-0.0400385 1.41682 -0.0400385 2.08386 0.279989 2.62528C0.600017 3.16681 1.19163 3.50042 1.83185 3.50072H3.6235H3.62335C4.09891 3.50087 4.55511 3.3165 4.89131 2.98832C5.22768 2.66 5.4165 2.21466 5.4165 1.75032C5.4165 1.2861 5.22769 0.840765 4.89131 0.512437C4.55508 0.184116 4.09887 -0.000112488 3.62335 3.74684e-05L1.83185 0ZM8.10771 0C7.46749 0.000292864 6.87603 0.333885 6.556 0.875443C6.23597 1.41682 6.23597 2.08386 6.556 2.62528C6.87603 3.16681 7.46749 3.50042 8.10771 3.50072H9.89229C10.3678 3.50087 10.8239 3.3165 11.1602 2.98832C11.4965 2.66 11.6854 2.21466 11.6854 1.75032C11.6854 1.2861 11.4965 0.840765 11.1602 0.512437C10.8239 0.184116 10.3678 -0.000112488 9.89229 3.74684e-05L8.10771 0ZM14.3766 0C13.7364 0.000292864 13.1448 0.333885 12.8248 0.875443C12.5048 1.41682 12.5048 2.08386 12.8248 2.62528C13.1448 3.16681 13.7364 3.50042 14.3766 3.50072H16.1683H16.1682C16.6437 3.50087 17.0998 3.3165 17.4361 2.98832C17.7725 2.66 17.9613 2.21466 17.9613 1.75032C17.9613 1.2861 17.7725 0.840765 17.4361 0.512437C17.0997 0.184116 16.6437 -0.000112488 16.1682 3.74684e-05L14.3766 0ZM1.83185 5.25033C1.34969 5.23979 0.883772 5.41947 0.538978 5.74882C0.194353 6.07802 0 6.52893 0 6.99972C0 7.47054 0.194357 7.92157 0.538978 8.25076C0.883753 8.57996 1.34969 8.75964 1.83185 8.74925H3.6235H3.62335C4.10551 8.75965 4.57143 8.57997 4.91622 8.25076C5.26085 7.92156 5.4552 7.47054 5.4552 6.99972C5.4552 6.52889 5.26085 6.07801 4.91622 5.74882C4.57145 5.41947 4.10551 5.2398 3.62335 5.25033H1.83185ZM8.10771 5.25033C7.6257 5.23979 7.15963 5.41947 6.81499 5.74882C6.47021 6.07802 6.27601 6.52893 6.27601 6.99972C6.27601 7.47054 6.47022 7.92157 6.81499 8.25076C7.15961 8.57996 7.6257 8.75964 8.10771 8.74925H9.89229C10.3743 8.75965 10.8404 8.57997 11.185 8.25076C11.5298 7.92156 11.724 7.47054 11.724 6.99972C11.724 6.52889 11.5298 6.07801 11.185 5.74882C10.8404 5.41947 10.3743 5.2398 9.89229 5.25033H8.10771ZM14.3766 5.25033C13.8945 5.23979 13.4286 5.41947 13.0838 5.74882C12.7392 6.07802 12.5448 6.52893 12.5448 6.99972C12.5448 7.47054 12.7392 7.92157 13.0838 8.25076C13.4286 8.57996 13.8945 8.75964 14.3766 8.74925H16.1683H16.1682C16.6503 8.75965 17.1162 8.57997 17.461 8.25076C17.8056 7.92156 18 7.47054 18 6.99972C18 6.52889 17.8056 6.07801 17.461 5.74882C17.1162 5.41947 16.6503 5.2398 16.1682 5.25033H14.3766ZM1.83185 10.5007V10.5005C1.34984 10.4903 0.884041 10.6701 0.539593 10.9993C0.194968 11.3285 0.000767994 11.7794 0.000767994 12.2501C0.000767994 12.7207 0.194975 13.1716 0.539593 13.5008C0.884068 13.83 1.34984 14.0098 1.83185 13.9996H3.6235H3.62335C4.25428 13.9861 4.83134 13.6497 5.14281 13.1141C5.45444 12.5782 5.45444 11.9219 5.14281 11.386C4.83133 10.8502 4.25424 10.514 3.62335 10.5005L1.83185 10.5007ZM8.10771 10.5007V10.5005C7.62585 10.4903 7.1599 10.6701 6.81545 10.9993C6.471 11.3285 6.27678 11.7794 6.27678 12.2501C6.27678 12.7207 6.47098 13.1716 6.81545 13.5008C7.15991 13.83 7.62585 14.0098 8.10771 13.9996H9.89229C10.5231 13.9861 11.1003 13.6497 11.4118 13.1141C11.7232 12.5782 11.7232 11.9219 11.4118 11.386C11.1003 10.8502 10.5231 10.514 9.89229 10.5005L8.10771 10.5007ZM14.3766 10.5007V10.5005C13.8946 10.4903 13.4288 10.6701 13.0844 10.9993C12.7398 11.3285 12.5456 11.7794 12.5456 12.2501C12.5456 12.7207 12.7398 13.1716 13.0844 13.5008C13.4289 13.83 13.8946 14.0098 14.3766 13.9996H16.1683H16.1682C16.7991 13.9861 17.3761 13.6497 17.6876 13.1141C17.9991 12.5782 17.9991 11.9219 17.6876 11.386C17.3761 10.8502 16.799 10.514 16.1682 10.5005L14.3766 10.5007Z" fill="#F2AD8C"/>
</svg>
