<svg width="25" height="19" viewBox="0 0 25 19" fill="none" xmlns="http://www.w3.org/2000/svg">
<path fill-rule="evenodd" clip-rule="evenodd" d="M23.6256 8.28796H4.20962L9.87969 2.09485C10.3951 1.59272 10.3093 0.755874 9.79383 0.337381C9.27837 -0.164754 8.41931 -0.0811126 7.98971 0.421022L0.601318 8.45518C0.429592 8.6226 0.257727 8.79002 0.0858572 8.95731C-0.0858686 9.3758 -3.7922e-06 9.96158 0.343588 10.2964L7.98971 18.5817C8.24745 18.8327 8.59104 19 8.93478 19C9.27837 19 9.5361 18.9164 9.79383 18.6653C10.3093 18.1632 10.3951 17.41 9.87969 16.9078L4.20962 10.7147H23.7113C24.3987 10.7147 25 10.1289 25 9.45937C25 8.78996 24.3127 8.28782 23.6255 8.28782L23.6256 8.28796Z" fill="black" fill-opacity="0.47"/>
</svg>
