<svg width="12" height="14" viewBox="0 0 12 14" fill="none" xmlns="http://www.w3.org/2000/svg">
<path d="M3.962 5.943H2.641V7.264H3.962V5.943ZM6.603 5.943H5.283V7.264H6.6L6.603 5.943ZM9.244 5.943H7.924V7.264H9.245L9.244 5.943ZM10.565 1.321H9.905V0H8.584V1.321H3.3V0H1.981V1.321H1.321C1.14797 1.32113 0.976676 1.35541 0.816922 1.42186C0.657167 1.48832 0.512098 1.58565 0.39003 1.70827C0.267961 1.8309 0.171293 1.97641 0.105565 2.13647C0.0398372 2.29652 0.00634241 2.46798 0.00700035 2.641L3.79109e-07 11.886C-0.00013112 12.0595 0.0339479 12.2313 0.100288 12.3917C0.166628 12.552 0.263927 12.6977 0.386619 12.8204C0.509311 12.9431 0.654989 13.0404 0.81532 13.1067C0.97565 13.1731 1.14749 13.2071 1.321 13.207H10.566C10.916 13.2059 11.2514 13.0664 11.4989 12.8189C11.7464 12.5714 11.8859 12.236 11.887 11.886V2.641C11.8857 2.29097 11.7459 1.95569 11.4982 1.70837C11.2505 1.46105 10.915 1.32179 10.565 1.321ZM10.565 11.886H1.321V4.622H10.566L10.565 11.886Z" fill="#F2AD8C"/>
</svg>
