<svg width="33" height="33" viewBox="0 0 33 33" fill="none" xmlns="http://www.w3.org/2000/svg">
<path d="M16.5 1.75285e-07C12.1241 1.75285e-07 7.92741 1.7384 4.83269 4.83269C1.73798 7.92699 0 12.1239 0 16.5C0 20.8761 1.7384 25.0726 4.83269 28.1673C7.92699 31.262 12.1239 33 16.5 33C20.8761 33 25.0726 31.2616 28.1673 28.1673C31.262 25.073 33 20.8761 33 16.5C33.0005 13.6036 32.2384 10.7578 30.7905 8.24943C29.3422 5.74097 27.2592 3.65794 24.7506 2.20954C22.2421 0.761559 19.3964 -0.000421941 16.5 1.75285e-07ZM25.4826 12.0454L14.3828 25.9855L7.62892 19.2316C7.31987 18.9659 7.13566 18.5834 7.12082 18.1761C7.10598 17.7688 7.26191 17.3738 7.55071 17.0862C7.83974 16.7988 8.23544 16.645 8.64248 16.6617C9.04976 16.6787 9.4316 16.8648 9.69567 17.175L14.1364 21.6023L23.1968 10.2256C23.4324 9.90528 23.7881 9.69469 24.1822 9.64216C24.5763 9.58987 24.9748 9.70011 25.2858 9.94767C25.5967 10.1955 25.7936 10.559 25.8308 10.9547C25.8681 11.3506 25.7425 11.7445 25.4832 12.0458L25.4826 12.0454Z" fill="white"/>
</svg>
