<svg width="11" height="14" viewBox="0 0 11 14" fill="none" xmlns="http://www.w3.org/2000/svg">
<g clip-path="url(#clip0_172_2492)">
<path d="M5.04595 9.02632e-05C5.70972 -0.00389162 6.36766 0.123907 6.98167 0.376082C7.59567 0.628257 8.15353 0.999786 8.62289 1.46915C9.09225 1.9385 9.46378 2.49636 9.71595 3.11037C9.96813 3.72437 10.0959 4.38232 10.0919 5.04608C10.1399 6.17103 9.77261 7.27435 9.05995 8.14609L5.04595 13.6461L1.14594 8.14609C0.397504 7.28771 -0.010544 6.18488 -0.00105899 5.04608C0.0104299 3.71135 0.545758 2.43455 1.48959 1.49072C2.43342 0.546892 3.71022 0.0115792 5.04495 9.02632e-05H5.04595ZM5.04595 2.17909C5.42349 2.17535 5.79799 2.24695 6.14752 2.38971C6.49705 2.53246 6.81459 2.74349 7.08157 3.01047C7.34854 3.27744 7.55957 3.59499 7.70233 3.94452C7.84508 4.29405 7.91668 4.66854 7.91294 5.04608C7.92734 5.43159 7.86386 5.81606 7.72627 6.17647C7.58867 6.53687 7.37981 6.86583 7.11216 7.14366C6.84451 7.42149 6.52358 7.64249 6.16856 7.79344C5.81354 7.94439 5.43173 8.0222 5.04595 8.0222C4.66017 8.0222 4.27835 7.94439 3.92333 7.79344C3.56831 7.64249 3.24738 7.42149 2.97973 7.14366C2.71208 6.86583 2.50322 6.53687 2.36562 6.17647C2.22803 5.81606 2.16455 5.43159 2.17895 5.04608C2.17521 4.66854 2.24681 4.29405 2.38957 3.94452C2.53232 3.59499 2.74335 3.27744 3.01032 3.01047C3.2773 2.74349 3.59484 2.53246 3.94438 2.38971C4.29391 2.24695 4.66841 2.17535 5.04595 2.17909Z" fill="#F56B2A" fill-opacity="0.52"/>
</g>
<defs>
<clipPath id="clip0_172_2492">
<rect width="10.091" height="13.646" fill="white"/>
</clipPath>
</defs>
</svg>
