<svg width="17" height="14" viewBox="0 0 17 14" fill="none" xmlns="http://www.w3.org/2000/svg">
<g clip-path="url(#clip0_172_2533)">
<path d="M16.4161 2.648H11.1161V0.53C11.1163 0.460362 11.1027 0.391386 11.0761 0.327024C11.0495 0.262661 11.0104 0.20418 10.9612 0.154939C10.912 0.105697 10.8535 0.0666665 10.7891 0.0400782C10.7248 0.0134898 10.6558 -0.000130818 10.5861 9.46938e-07H6.35413C6.2845 -0.000130818 6.21552 0.0134898 6.15116 0.0400782C6.0868 0.0666665 6.02832 0.105697 5.97908 0.154939C5.92984 0.20418 5.8908 0.262661 5.86421 0.327024C5.83762 0.391386 5.824 0.460362 5.82414 0.53V2.648H0.52414C0.454503 2.64787 0.385522 2.66149 0.32116 2.68808C0.256798 2.71467 0.198321 2.7537 0.149079 2.80294C0.099838 2.85218 0.0607995 2.91066 0.0342112 2.97502C0.00762283 3.03938 -0.00599019 3.10836 -0.00585843 3.178V5.56C0.00675908 6.2032 0.273804 6.81517 0.736779 7.26183C1.19975 7.7085 1.8209 7.95345 2.46414 7.943H6.87814V7.149C6.87814 6.86813 6.98971 6.59878 7.18831 6.40017C7.38691 6.20157 7.65627 6.09 7.93713 6.09H9.00014C9.281 6.09 9.55036 6.20157 9.74896 6.40017C9.94756 6.59878 10.0591 6.86813 10.0591 7.149V7.943H14.4731C15.1164 7.95345 15.7375 7.7085 16.2005 7.26183C16.6635 6.81517 16.9305 6.2032 16.9431 5.56V3.177C16.9433 3.10736 16.9296 3.03838 16.9031 2.97402C16.8765 2.90966 16.8374 2.85118 16.7882 2.80194C16.739 2.7527 16.6805 2.71367 16.6161 2.68708C16.5518 2.66049 16.4828 2.64687 16.4131 2.647L16.4161 2.648ZM10.0621 2.648H6.88414V1.059H10.0611L10.0621 2.648ZM16.9461 7.21V13.239C16.9463 13.3086 16.9326 13.3776 16.9061 13.442C16.8795 13.5063 16.8404 13.5648 16.7912 13.6141C16.742 13.6633 16.6835 13.7023 16.6191 13.7289C16.5548 13.7555 16.4858 13.7691 16.4161 13.769H0.530137C0.460499 13.7691 0.391519 13.7555 0.327157 13.7289C0.262795 13.7023 0.204317 13.6633 0.155076 13.6141C0.105835 13.5648 0.0668038 13.5063 0.0402155 13.442C0.0136272 13.3776 6.51181e-06 13.3086 0.000138277 13.239V7.21C0.281185 7.60235 0.652061 7.92173 1.08177 8.14145C1.51147 8.36118 1.98752 8.47486 2.47014 8.473H6.88414V9.267C6.88414 9.54786 6.99571 9.81723 7.19431 10.0158C7.39292 10.2144 7.66227 10.326 7.94314 10.326H9.00014C9.281 10.326 9.55036 10.2144 9.74896 10.0158C9.94756 9.81723 10.0591 9.54786 10.0591 9.267V8.473H14.4731C14.9558 8.47486 15.4318 8.36118 15.8615 8.14145C16.2912 7.92173 16.6621 7.60235 16.9431 7.21H16.9461ZM7.94614 9.797C7.8765 9.79713 7.80752 9.78351 7.74316 9.75692C7.6788 9.73034 7.62032 9.6913 7.57108 9.64206C7.52184 9.59282 7.4828 9.53434 7.45622 9.46998C7.42963 9.40562 7.41601 9.33664 7.41614 9.267V7.149C7.41601 7.07936 7.42963 7.01039 7.45622 6.94602C7.4828 6.88166 7.52184 6.82318 7.57108 6.77394C7.62032 6.7247 7.6788 6.68567 7.74316 6.65908C7.80752 6.63249 7.8765 6.61887 7.94614 6.619H9.00014C9.06978 6.61887 9.13876 6.63249 9.20312 6.65908C9.26748 6.68567 9.32596 6.7247 9.3752 6.77394C9.42444 6.82318 9.46347 6.88166 9.49006 6.94602C9.51665 7.01039 9.53027 7.07936 9.53014 7.149V9.267C9.53027 9.33664 9.51665 9.40562 9.49006 9.46998C9.46347 9.53434 9.42444 9.59282 9.3752 9.64206C9.32596 9.6913 9.26748 9.73034 9.20312 9.75692C9.13876 9.78351 9.06978 9.79713 9.00014 9.797H7.94614Z" fill="#F2AD8C"/>
</g>
<defs>
<clipPath id="clip0_172_2533">
<rect width="16.945" height="13.768" fill="white"/>
</clipPath>
</defs>
</svg>
