<svg width="30" height="30" viewBox="0 0 26 27" fill="none" xmlns="http://www.w3.org/2000/svg">
<path d="M25.517 11.9659L13.7412 0.332385C13.5212 0.119453 13.2252 0 12.9169 0C12.6088 0 12.3128 0.119453 12.0926 0.332385L0.316736 11.9659C0.113291 12.1811 4.5867e-07 12.4644 4.5867e-07 12.7589C-0.000262445 13.0534 0.112503 13.337 0.315424 13.5525C0.518608 13.7681 0.796706 13.8995 1.09397 13.9205H2.53076V25.554C2.53076 25.8625 2.65483 26.1582 2.87562 26.3766C3.09642 26.5948 3.39581 26.7173 3.70834 26.7173H10.3028V18.9109C10.3028 18.6024 10.4269 18.3064 10.6477 18.0883C10.8685 17.8702 11.1679 17.7476 11.4804 17.7476H14.3303H14.33C14.6423 17.7476 14.9419 17.8702 15.1627 18.0883C15.3835 18.3064 15.5076 18.6024 15.5076 18.9109V26.7054H22.102C22.4143 26.7054 22.714 26.5828 22.9348 26.3647C23.1556 26.1465 23.2796 25.8505 23.2796 25.542V13.9085H24.7753C25.0655 13.8776 25.3336 13.7413 25.5279 13.5263C25.7221 13.311 25.8286 13.0321 25.8267 12.7439C25.8246 12.4556 25.7145 12.1783 25.5171 11.9656L25.517 11.9659Z" fill="currentColor"/>
</svg>
