<svg width="28" height="21" viewBox="0 0 28 21" fill="none" xmlns="http://www.w3.org/2000/svg">
<path d="M11.8461 3.60613C10.537 3.60613 9.28166 4.11846 8.35597 5.03045C7.43028 5.94244 6.91024 7.17918 6.91024 8.46889C6.91024 9.75861 7.43027 10.9954 8.35597 11.9073C9.28167 12.8193 10.537 13.3317 11.8461 13.3317C13.1552 13.3317 14.4106 12.8193 15.3363 11.9073C16.262 10.9953 16.782 9.75861 16.782 8.46889C16.782 7.17918 16.262 5.94242 15.3363 5.03045C14.4106 4.11847 13.1552 3.60613 11.8461 3.60613ZM11.8461 11.3865C11.0606 11.3865 10.3074 11.0792 9.7519 10.5321C9.19661 9.98481 8.88459 9.24282 8.88459 8.46889C8.88459 7.69496 9.19661 6.95299 9.7519 6.40569C10.3074 5.85863 11.0606 5.55124 11.8461 5.55124C12.6317 5.55124 13.3848 5.85863 13.9403 6.40569C14.4956 6.95297 14.8077 7.69496 14.8077 8.46889C14.8077 9.24282 14.4956 9.98479 13.9403 10.5321C13.3848 11.0792 12.6317 11.3865 11.8461 11.3865ZM26.6538 4.57868H23.6922V1.66103C23.6922 1.40313 23.5882 1.15565 23.4031 0.973295C23.218 0.790945 22.9668 0.688477 22.7051 0.688477H0.987177C0.7254 0.688477 0.474195 0.790945 0.289102 0.973295C0.104009 1.15565 0 1.40313 0 1.66103V15.2768C0 15.5347 0.104009 15.7821 0.289102 15.9645C0.474195 16.1468 0.7254 16.2493 0.987177 16.2493H3.94871V19.167C3.94871 19.4249 4.05272 19.6723 4.23781 19.8547C4.4229 20.037 4.67411 20.1395 4.93588 20.1395H26.6538C26.9155 20.1395 27.1668 20.037 27.3518 19.8547C27.5369 19.6723 27.6409 19.4249 27.6409 19.167V5.55124C27.6409 5.29334 27.5369 5.04585 27.3518 4.8635C27.1668 4.68115 26.9155 4.57868 26.6538 4.57868ZM1.97435 14.3042V2.63358H21.7179V14.3042H1.97435ZM25.6666 18.1944H5.92306V16.2493H22.7051C22.9668 16.2493 23.218 16.1468 23.4031 15.9645C23.5882 15.7821 23.6922 15.5347 23.6922 15.2768V6.52379H25.6666V18.1944Z" fill="#F56B2A"/>
</svg>
