<svg width="30" height="30" viewBox="0 0 28 28" fill="none" xmlns="http://www.w3.org/2000/svg">
<path d="M18.0645 11.6244L27.8571 7.49666C26.3462 3.94623 23.5331 1.34159 20.2056 0L16.2328 9.76268C16.9977 10.2098 17.6326 10.8516 18.0648 11.6243L18.0645 11.6244Z" fill="currentColor"/>
<path d="M27.1191 9.35946L18.8525 12.8599C18.912 13.1653 18.9457 13.4806 18.9457 13.8038C18.9457 16.5052 16.7555 18.6955 14.0536 18.6955C11.352 18.6955 9.16202 16.5055 9.16202 13.8038C9.16202 11.1023 11.352 8.91207 14.0536 8.91207C14.3505 8.91207 14.6396 8.94278 14.9222 8.99325L18.2925 0.671664C15.2481 -0.312026 11.8503 -0.251436 8.6727 1.09413C1.65318 4.06725 -1.62729 12.167 1.34581 19.1855C4.31786 26.204 12.4189 29.4837 19.4379 26.5119C26.1462 23.6705 29.4354 16.1472 27.1183 9.35963L27.1191 9.35946Z" fill="currentColor"/>
</svg>
