<svg width="26" height="26" viewBox="0 0 26 26" fill="none" xmlns="http://www.w3.org/2000/svg">
<path d="M21 26H5C3.67388 26 2.40223 25.4732 1.46451 24.5355C0.5268 23.5978 0 22.3261 0 21V14H10.5897L8.28971 16.2899C8.03614 16.5437 7.93703 16.9134 8.02989 17.2598C8.12275 17.6065 8.39328 17.877 8.73995 17.9699C9.08637 18.0627 9.456 17.9636 9.70983 17.7101L13.7098 13.71C13.8009 13.615 13.8721 13.5027 13.9199 13.3799C14.0199 13.1366 14.0199 12.8634 13.9199 12.6201C13.8721 12.4973 13.8009 12.385 13.7098 12.29L9.70983 8.28995C9.52211 8.10067 9.26653 7.99419 8.99977 7.99419C8.73302 7.99419 8.47746 8.10067 8.28972 8.28995C8.10043 8.47768 7.99396 8.73326 7.99396 9.00001C7.99396 9.26676 8.10043 9.52233 8.28972 9.71007L10.5897 12H5.66755e-06V5.00001C5.66755e-06 3.67389 0.526794 2.40223 1.46452 1.46452C2.40225 0.5268 3.67389 0 5 0H21C22.3261 0 23.5978 0.526789 24.5355 1.46452C25.4732 2.40224 26 3.67389 26 5.00001V21C26 22.3261 25.4732 23.5978 24.5355 24.5355C23.5978 25.4732 22.3261 26 21 26Z" fill="white"/>
</svg>
