<svg width="20" height="27" viewBox="0 0 20 27" fill="none" xmlns="http://www.w3.org/2000/svg">
<path d="M15.7601 0.78125V5.08561H4.33126L4.33099 0.78125H0.249268V26.608H19.842V0.78125H15.7601ZM15.7601 22.3038H4.33056C3.87983 22.3038 3.51438 21.9181 3.51438 21.4428C3.51438 20.9675 3.87984 20.5818 4.33056 20.5818H15.7601C16.2108 20.5818 16.5763 20.9675 16.5763 21.4428C16.5763 21.9181 16.2108 22.3038 15.7601 22.3038ZM15.7601 17.1384H4.33056C3.87983 17.1384 3.51438 16.7528 3.51438 16.2774C3.51438 15.8021 3.87984 15.4165 4.33056 15.4165H15.7601C16.2108 15.4165 16.5763 15.8021 16.5763 16.2774C16.5763 16.7528 16.2108 17.1384 15.7601 17.1384ZM15.7601 11.9731H4.33056C3.87983 11.9731 3.51438 11.5874 3.51438 11.1121C3.51438 10.6368 3.87984 10.2511 4.33056 10.2511H15.7601C16.2108 10.2511 16.5763 10.6368 16.5763 11.1121C16.5763 11.5874 16.2108 11.9731 15.7601 11.9731Z" fill="#C4C4C4"/>
</svg>
