<svg width="13" height="17" viewBox="0 0 13 17" fill="none" xmlns="http://www.w3.org/2000/svg">
<path fill-rule="evenodd" clip-rule="evenodd" d="M7.22055 1.17744V0.820515C7.22055 0.273466 6.94708 0 6.40003 0C5.85299 0 5.57952 0.273466 5.57952 0.820515V1.17744C3.2882 1.4414 1.63841 3.51637 1.64105 5.25071C1.64105 6.01891 1.63338 6.61599 1.64105 7.38408C1.66474 8.51401 1.41257 10.0442 0.820534 10.9943C0.625708 11.3005 0.352137 11.574 1.89512e-05 11.8149V13.4559H12.8V11.8149C12.4479 11.574 12.1743 11.3005 11.9795 10.9943C11.3875 10.0442 11.1353 8.51401 11.159 7.38408C11.1667 6.61599 11.159 6.01891 11.159 5.25071C11.1617 3.51649 9.51192 1.44147 7.22055 1.17744V1.17744ZM6.40003 16.4103C7.75948 16.4103 8.86158 15.3082 8.86158 13.9487H3.93849C3.93849 15.3082 5.04059 16.4103 6.40003 16.4103Z" fill="#F56B2A"/>
</svg>
