<svg width="14" height="14" viewBox="0 0 14 14" fill="none" xmlns="http://www.w3.org/2000/svg">
<path d="M6.6 7.428C7.33464 7.42859 8.05296 7.2113 8.6641 6.80361C9.27524 6.39591 9.75174 5.81613 10.0333 5.1376C10.3149 4.45906 10.389 3.71226 10.2461 2.99164C10.1032 2.27103 9.7498 1.60897 9.23061 1.08922C8.71142 0.56947 8.04974 0.215369 7.32928 0.0717071C6.60882 -0.0719547 5.86194 0.00127685 5.1831 0.282139C4.50426 0.563001 3.92397 1.03888 3.51562 1.64957C3.10726 2.26027 2.8892 2.97836 2.889 3.713C2.889 4.69759 3.27985 5.64191 3.97568 6.33849C4.67152 7.03507 5.61541 7.42694 6.6 7.428ZM9.9 8.253H8.484C7.89439 8.52494 7.25281 8.66577 6.6035 8.66577C5.95419 8.66577 5.31261 8.52494 4.723 8.253H3.3C2.42479 8.253 1.58542 8.60068 0.966548 9.21955C0.347678 9.83842 0 10.6778 0 11.553L0 11.966C0 12.2943 0.130432 12.6092 0.362602 12.8414C0.594772 13.0736 0.909662 13.204 1.238 13.204H11.969C12.2973 13.204 12.6122 13.0736 12.8444 12.8414C13.0766 12.6092 13.207 12.2943 13.207 11.966V11.553C13.207 11.1195 13.1216 10.6902 12.9556 10.2897C12.7896 9.88918 12.5464 9.5253 12.2397 9.21884C11.9331 8.91238 11.5691 8.66935 11.1685 8.50362C10.7679 8.3379 10.3385 8.25274 9.905 8.253H9.9Z" fill="currentColor"/>
</svg>
