<svg width="14" height="14" viewBox="0 0 14 14" fill="none" xmlns="http://www.w3.org/2000/svg">
<path d="M12.8 9.30725L9.914 8.07225C9.79091 8.01986 9.65413 8.00889 9.52427 8.041C9.39441 8.0731 9.27849 8.14654 9.194 8.25025L7.918 9.80925C5.91549 8.8648 4.30401 7.25298 3.36 5.25025L4.919 3.97425C5.02285 3.88986 5.09639 3.77395 5.1285 3.64405C5.16062 3.51414 5.14956 3.37731 5.097 3.25425L3.861 0.373254C3.80316 0.240689 3.70093 0.132426 3.57189 0.0670871C3.44286 0.00174845 3.29509 -0.0165801 3.154 0.0152544L0.478001 0.632254C0.342299 0.663632 0.221207 0.740001 0.13442 0.848938C0.0476329 0.957876 0.000257825 1.09297 6.70415e-07 1.23225C-0.000524808 2.80009 0.307862 4.35266 0.907541 5.80127C1.50722 7.24988 2.38644 8.56615 3.49497 9.67487C4.60351 10.7836 5.91962 11.663 7.36814 12.2629C8.81665 12.8629 10.3692 13.1715 11.937 13.1713C12.0763 13.171 12.2114 13.1236 12.3203 13.0368C12.4293 12.95 12.5056 12.829 12.537 12.6933L13.154 10.0183C13.1859 9.87651 13.1674 9.7281 13.1017 9.59853C13.036 9.46895 12.9272 9.36631 12.794 9.30825L12.8 9.30725Z" fill="currentColor"/>
</svg>
