<svg width="22" height="26" viewBox="0 0 22 26" fill="none" xmlns="http://www.w3.org/2000/svg">
<path d="M9.97582 0.879634V2.06114V4.89563V8.32377V11.2863C9.97582 11.7636 9.96127 12.2437 9.97582 12.7239V12.7443L10.8488 11.8713H7.54001H2.29887H1.08533C1.3647 12.0837 1.647 12.2991 1.92637 12.5115C1.89436 12.3281 1.86526 12.1448 1.84198 11.9585C1.85362 12.0371 1.86235 12.1128 1.87399 12.1913C1.71975 11.0302 1.74304 9.86904 1.74304 8.70211V4.95676V4.03132L0.870009 4.90435C4.09445 4.63662 7.23439 3.75195 10.1127 2.27069C10.5114 2.06698 10.9014 1.84581 11.2942 1.63047C11.6958 1.4093 11.8588 0.824388 11.6085 0.43731C11.3466 0.0327998 10.8431 -0.112708 10.4154 0.123018C9.49864 0.626469 8.57906 1.11248 7.61291 1.51988C7.68275 1.49078 7.75259 1.46168 7.82244 1.43258C5.91632 2.23286 3.90829 2.77995 1.85663 3.05933C1.93521 3.04769 2.01087 3.03896 2.08944 3.02732C1.68493 3.0797 1.28043 3.12335 0.873027 3.15827C0.401584 3.1961 0 3.52786 0 4.0313V6.63585V10.0232C0 11.0127 0.0814807 11.9963 0.25027 12.9712C0.282281 13.1516 0.424875 13.3175 0.564562 13.4251C0.715891 13.5416 0.896319 13.6114 1.0942 13.6114H4.40304H9.64418H10.8577C11.3292 13.6114 11.7307 13.2127 11.7307 12.7384V11.5569V8.72237V5.29423V2.33171C11.7307 1.85444 11.7424 1.37429 11.7307 0.894084V0.873713C11.7307 0.416824 11.3291 -0.0196941 10.8577 0.00068677C10.3746 0.0268781 9.97597 0.390643 9.97597 0.879567L9.97582 0.879634Z" fill="#F56B2A"/>
<path d="M19.9577 4.03126V6.50778V9.92134C19.9577 10.6809 19.9257 11.4375 19.8267 12.1912C19.8384 12.1127 19.8471 12.037 19.8587 11.9584C19.8325 12.1418 19.8063 12.328 19.7743 12.5114C20.0537 12.2989 20.336 12.0836 20.6154 11.8712H17.3065H12.0654H10.8519L11.7249 12.7442V11.5627V8.72818V5.30004V2.33752C11.7249 1.86026 11.7394 1.3801 11.7249 0.899895V0.879524C11.2884 1.12979 10.8489 1.38298 10.4124 1.63325C11.4776 2.21817 12.5514 2.76526 13.6776 3.22216C15.0948 3.79836 16.5644 4.2378 18.0661 4.5259C18.9799 4.70341 19.9052 4.82855 20.8336 4.90422C21.2905 4.94205 21.727 4.47642 21.7066 4.03119C21.6834 3.52483 21.3225 3.19887 20.8336 3.15816C20.4349 3.12615 20.0363 3.0825 19.6375 3.03012C19.7161 3.04176 19.7918 3.05049 19.8703 3.06213C17.8012 2.78276 15.7758 2.22981 13.8524 1.41793L14.0619 1.50523C13.1103 1.10072 12.1994 0.620552 11.2944 0.122896C10.7182 -0.194307 9.9819 0.201471 9.9819 0.876617V2.05812V4.89261V8.32076V11.2833C9.9819 11.7605 9.97026 12.2407 9.9819 12.7209V12.7413C9.9819 13.2127 10.3806 13.6143 10.8549 13.6143H14.1638H19.4049H20.6184C20.9706 13.6143 21.3955 13.3466 21.4595 12.9741C21.6225 12.0283 21.7098 11.0738 21.7098 10.1134V8.86204V5.00903V4.03123C21.7098 3.57434 21.3082 3.13782 20.8367 3.1582C20.3566 3.18148 19.9578 3.54234 19.9578 4.03123L19.9577 4.03126Z" fill="#F56B2A"/>
<path d="M19.7714 12.5114C19.5794 13.5969 19.268 14.6591 18.8431 15.6777C18.8722 15.6078 18.9013 15.538 18.9304 15.4681C18.491 16.5041 17.9381 17.4907 17.2775 18.4015C17.1989 18.5092 17.1203 18.614 17.0418 18.7187C17.2222 18.4801 17.0592 18.6955 17.0156 18.7508C16.969 18.809 16.9224 18.8642 16.8759 18.9225C16.6984 19.1378 16.515 19.3473 16.3259 19.5539C15.9417 19.9701 15.5314 20.3659 15.0978 20.7355C14.9901 20.8286 14.8824 20.9188 14.7719 21.0061C14.7253 21.0439 14.6787 21.0818 14.6322 21.1167C14.6089 21.1341 14.4896 21.2273 14.6147 21.1312C14.7457 21.0294 14.5856 21.1516 14.5623 21.172C14.3353 21.3437 14.1025 21.5066 13.8668 21.6667C13.698 21.7773 13.5292 21.885 13.3576 21.9926C12.8133 22.336 12.2721 22.6794 11.7279 23.0228C11.2885 23.3022 10.8461 23.5786 10.4067 23.858C10.8432 24.1083 11.2826 24.3614 11.7192 24.6117V23.4302V20.5957V17.1676V14.205C11.7192 13.7278 11.7337 13.2476 11.7192 12.7674V12.747L10.8461 13.6201H14.155H19.3961H20.6096C21.0665 13.6201 21.503 13.2185 21.4827 12.747C21.4623 12.2727 21.0985 11.874 20.6096 11.874H17.3008H12.0597H10.8461C10.3747 11.874 9.9731 12.2727 9.9731 12.747V13.9286V16.763V20.1912V23.1537C9.9731 23.631 9.96146 24.1111 9.9731 24.5913V24.6117C9.9731 25.2548 10.721 25.7234 11.2856 25.3654C12.3332 24.7048 13.3779 24.0442 14.4256 23.3807C16.7275 21.9256 18.6482 19.8769 19.9114 17.4617C20.6477 16.0561 21.1773 14.54 21.4509 12.9772C21.4916 12.7415 21.4887 12.5174 21.3636 12.305C21.2588 12.1246 21.0493 11.95 20.8427 11.9034C20.4207 11.8044 19.8562 12.0314 19.7718 12.5116L19.7714 12.5114Z" fill="#F56B2A"/>
<path d="M9.97581 12.7441V13.9256V16.7601V20.1882V23.1508C9.97581 23.628 9.96126 24.1082 9.97581 24.5884V24.6088C10.4123 24.3585 10.8518 24.1053 11.2883 23.855C10.3512 23.2614 9.41414 22.6706 8.47417 22.077C8.36068 22.0042 8.24719 21.9344 8.13078 21.8616C7.90088 21.7161 7.6768 21.5677 7.45853 21.4105C7.34795 21.332 7.24027 21.2534 7.13259 21.1719C7.10349 21.1486 7.07439 21.1253 7.04238 21.105C6.95217 21.0351 7.22281 21.2476 7.09476 21.1457L6.92016 21.006C6.47782 20.6481 6.05586 20.264 5.65718 19.8565C5.4622 19.6557 5.27304 19.452 5.08971 19.2395C4.99949 19.1348 4.90928 19.0271 4.81907 18.9194C4.78124 18.8729 4.7434 18.8292 4.70848 18.7826C4.66483 18.7274 4.47276 18.4713 4.6561 18.7186C3.90238 17.7059 3.25924 16.635 2.76451 15.468L2.85181 15.6775C2.42693 14.659 2.11262 13.5997 1.9235 12.5113C1.64412 12.8809 1.36182 13.2476 1.08245 13.6171H4.39129H9.63243H10.846C11.3029 13.6171 11.7394 13.2155 11.719 12.7441C11.6986 12.2698 11.3349 11.8711 10.846 11.8711H7.53713H2.29599H1.08245C0.805989 11.8711 0.564446 11.9991 0.395673 12.2145C0.215246 12.4473 0.189054 12.6918 0.238527 12.9769C0.736161 15.7707 2.0312 18.3957 3.90241 20.5259C4.84238 21.5939 5.94241 22.528 7.13845 23.2992C7.63899 23.6222 8.14536 23.9365 8.64589 24.2537C9.23374 24.6233 9.81867 24.9958 10.4065 25.3654C10.9711 25.7234 11.719 25.2549 11.719 24.6117V23.4302V20.5957V17.1676V14.2051C11.719 13.7278 11.7306 13.2476 11.719 12.7674V12.7471C11.719 12.2902 11.3174 11.8537 10.846 11.874C10.3745 11.8915 9.97581 12.2553 9.97581 12.7442L9.97581 12.7441Z" fill="#F56B2A"/>
</svg>
