<svg width="30" height="30" viewBox="0 0 22 21" fill="none" xmlns="http://www.w3.org/2000/svg">
<path d="M2.08183 16.0834H10.5867C11.037 16.0834 11.4529 15.8207 11.6781 15.3944C11.9031 14.968 11.9031 14.4427 11.6781 14.0164C11.4529 13.5898 11.037 13.3271 10.5867 13.3271H2.08183C1.63162 13.3271 1.21571 13.5898 0.990709 14.0164C0.765711 14.4427 0.765711 14.9681 0.990709 15.3944C1.21571 15.8207 1.63167 16.0834 2.08183 16.0834Z" fill="#F56B2A"/>
<path d="M2.08183 11.3578H10.5867C11.037 11.3578 11.4529 11.0951 11.6781 10.6688C11.9031 10.2425 11.9031 9.71709 11.6781 9.2908C11.4529 8.86423 11.037 8.60156 10.5867 8.60156H2.08183C1.63162 8.60156 1.21571 8.86423 0.990709 9.2908C0.765711 9.71714 0.765711 10.2425 0.990709 10.6688C1.21571 11.0951 1.63167 11.3578 2.08183 11.3578Z" fill="#F56B2A"/>
<path d="M2.08184 20.808H7.43677C7.88698 20.808 8.3029 20.5453 8.52813 20.119C8.75312 19.6927 8.75312 19.1673 8.52813 18.741C8.30291 18.3144 7.88699 18.0518 7.43677 18.0518H2.08184C1.63163 18.0518 1.21571 18.3144 0.99071 18.741C0.765711 19.1673 0.765711 19.6927 0.99071 20.119C1.21571 20.5453 1.63168 20.808 2.08184 20.808Z" fill="#F56B2A"/>
<path d="M17.1438 1.08151C16.6642 0.601721 16.0137 0.33238 15.3357 0.333009H7.56026C6.71301 0.333009 5.90056 0.669979 5.30135 1.27004C4.70236 1.86989 4.36567 2.68376 4.36567 3.53224V4.81181C4.36567 5.26907 4.60923 5.69148 5.00476 5.92C5.40008 6.14874 5.88721 6.14874 6.28249 5.92C6.6778 5.69148 6.92135 5.26902 6.92135 4.81181V3.53224C6.92135 3.17875 7.20747 2.89245 7.56021 2.89245H15.3356L18.741 6.30277V17.6086C18.741 17.7784 18.6737 17.9411 18.554 18.0612C18.4342 18.181 18.2717 18.2484 18.1021 18.2484H12.3519C11.8955 18.2484 11.4736 18.4923 11.2453 18.8884C11.0171 19.2843 11.0171 19.7722 11.2453 20.168C11.4737 20.5639 11.8955 20.8078 12.3519 20.8078H18.1021C18.9494 20.8078 19.7621 20.4708 20.361 19.8708C20.9603 19.2709 21.2967 18.457 21.2967 17.6086V6.30272C21.2994 5.62317 21.0302 4.9711 20.5493 4.49202L17.1438 1.08151Z" fill="#F56B2A"/>
</svg>
