<svg width="25" height="27" viewBox="0 0 25 27" fill="none" xmlns="http://www.w3.org/2000/svg">
<path d="M20.9757 9.78124H20.5229V8.86719C20.5229 5.92814 18.9694 3.21211 16.4477 1.74285C13.9259 0.273217 10.8189 0.273217 8.29712 1.74285C5.77537 3.21227 4.22186 5.92808 4.22186 8.86719V9.78124H3.76905C2.92833 9.78124 2.12217 10.1183 1.52783 10.7183C0.933335 11.3181 0.599396 12.1318 0.599396 12.9804V15.7225C0.599396 16.5711 0.93334 17.3847 1.52783 17.9846C2.12212 18.5847 2.92828 18.9217 3.76905 18.9217H4.22186V19.8357C4.22327 21.0475 4.70074 22.209 5.54975 23.0657C6.39854 23.9226 7.5494 24.4046 8.74993 24.406H9.82213C10.1094 25.2258 10.7647 25.8595 11.5885 26.1139C12.4122 26.3685 13.3067 26.2137 13.9993 25.6964C14.6919 25.1794 15.1006 24.3615 15.1006 23.4919C15.1006 22.6224 14.6918 21.8044 13.9993 21.2874C13.3067 20.7702 12.4122 20.6153 11.5885 20.87C10.7647 21.1244 10.1094 21.7581 9.82213 22.5779H8.74993C8.02927 22.5779 7.33836 22.289 6.82873 21.7748C6.31932 21.2605 6.03309 20.5631 6.03309 19.8357V18.9217C6.51338 18.9217 6.9741 18.7291 7.31389 18.3863C7.65349 18.0433 7.84432 17.5783 7.84432 17.0936V11.6093C7.84432 11.1245 7.65349 10.6595 7.31389 10.3166C6.97408 9.97382 6.51337 9.78121 6.03309 9.78121V8.86717C6.03309 6.58122 7.24133 4.46893 9.20274 3.32596C11.1641 2.18319 13.5806 2.18319 15.542 3.32596C17.5035 4.46893 18.7117 6.58122 18.7117 8.86717V9.78121C18.2314 9.78121 17.7707 9.97382 17.4309 10.3166C17.0913 10.6596 16.9005 11.1245 16.9005 11.6093V17.0936C16.9005 17.5784 17.0913 18.0434 17.4309 18.3863C17.7707 18.7291 18.2314 18.9217 18.7117 18.9217H20.9757C21.8165 18.9217 22.6226 18.5846 23.217 17.9846C23.8115 17.3848 24.1454 16.5711 24.1454 15.7225V12.9804C24.1454 12.1318 23.8114 11.3182 23.217 10.7183C22.6227 10.1183 21.8165 9.78124 20.9757 9.78124Z" fill="#F56B2A"/>
</svg>
